Coordinates
version=1
nRows=19
nColumns=34
inDegrees=yes

Units are S.I. units (second, meters, Newtons, ...)
If the header above contains a line with 'inDegrees', this indicates whether rotational values are in degrees (yes) or radians (no).

endheader
time	pelvis_tilt	pelvis_list	pelvis_rotation	pelvis_tx	pelvis_ty	pelvis_tz	hip_flexion_r	hip_adduction_r	hip_rotation_r	knee_angle_r	ankle_angle_r	subtalar_angle_r	mtp_angle_r	hip_flexion_l	hip_adduction_l	hip_rotation_l	knee_angle_l	ankle_angle_l	subtalar_angle_l	mtp_angle_l	lumbar_extension	lumbar_bending	lumbar_rotation	arm_flex_r	arm_add_r	arm_rot_r	elbow_flex_r	pro_sup_r	arm_flex_l	arm_add_l	arm_rot_l	elbow_flex_l	pro_sup_l
      1.00000000	      1.93551541	      2.09619627	     -3.38895829	      1.77344591	      0.88262693	     -0.17914007	     -5.36813203	     -6.75556579	      2.43426110	      0.00000000	      1.83564195	    -20.78758608	      0.00000000	     -6.02345386	     -0.82153385	     -0.86394928	      0.00000000	      3.18546908	     -8.05484980	      0.00000000	     -8.30351933	     -0.73069491	     -2.94833812	      8.60727862	     -4.17947631	     36.33651480	    101.54521334	     93.33907521	      6.53864549	    -13.06686023	     12.30251277	     96.65657449	     91.62871539
      1.01666670	      1.91879858	      2.10218750	     -3.39042764	      1.77390342	      0.88228851	     -0.17883805	     -5.37570625	     -6.75053986	      2.43730919	      0.00000000	      1.83422537	    -20.78837729	      0.00000000	     -6.03210880	     -0.83493293	     -0.86102873	      0.00000000	      3.18899399	     -8.05278621	      0.00000000	     -8.29484571	     -0.73618509	     -2.94079315	      8.61062071	     -4.17744199	     36.33698117	    101.54448783	     93.33639708	      6.53958639	    -13.06960246	     12.30001302	     96.65746360	     91.62426245
      1.03333330	      1.91359923	      2.04308319	     -3.46731448	      1.77415471	      0.88213299	     -0.17843775	     -5.37211632	     -6.64628211	      2.45621157	      0.00000000	      1.84424577	    -20.81200500	      0.00000000	     -6.08056149	     -0.93961691	     -0.80084131	      0.00000000	      3.23219554	     -8.01826013	      0.00000000	     -8.15148610	     -0.84727536	     -2.86157925	      8.63973843	     -4.13743924	     36.35518810	    101.54813693	     93.31090844	      6.53244601	    -13.09199536	     12.29147471	     96.67575384	     91.58090230
      1.05000000	      1.90007041	      2.06587396	     -3.46845513	      1.77434941	      0.88239063	     -0.17808304	     -5.37049847	     -6.63187952	      2.45929857	      0.00000000	      1.84557135	    -20.81343682	      0.00000000	     -6.09121578	     -0.94896446	     -0.79920320	      0.00000000	      3.23615922	     -8.01720282	      0.00000000	     -8.14750212	     -0.84684978	     -2.86105170	      8.64114891	     -4.13718759	     36.35610149	    101.54685209	     93.30895002	      6.52923485	    -13.08596912	     12.29703273	     96.67760609	     91.57797650
      1.06666670	      1.61876436	      2.05706306	     -3.72248196	      1.77498214	      0.88287005	     -0.17703465	     -5.02191179	     -6.56823169	      3.40077833	      0.00000000	      1.13700927	    -22.38488268	      0.00000000	     -5.87109749	     -1.01200126	     -1.49975095	      0.00000000	      4.00711916	     -6.95684039	      0.00000000	     -7.44315959	     -0.98827515	     -2.29913291	      8.49500460	     -4.20899917	     36.66542122	    101.02088811	     87.83143347	      6.71982065	    -12.96180051	     14.06699741	     96.15620012	     82.89321064
      1.08333330	      1.60434231	      2.02953775	     -3.79720373	      1.77543941	      0.88373676	     -0.17616704	     -5.02871216	     -6.48653971	      3.36292964	      0.00000000	      1.14134369	    -22.35948583	      0.00000000	     -5.92252235	     -1.08251978	     -1.42292470	      0.00000000	      3.94833673	     -6.93508625	      0.00000000	     -7.42159658	     -1.03571949	     -2.35157651	      8.50477921	     -4.18271708	     36.66766973	    101.04256308	     87.82260984	      6.61482455	    -12.86038107	     14.18536335	     96.19671331	     82.88473814
      1.10000000	      1.58941582	      2.05784013	     -3.80035566	      1.77566024	      0.88398333	     -0.17554459	     -5.04539772	     -6.46953027	      3.36016566	      0.00000000	      1.14061865	    -22.35748687	      0.00000000	     -5.92311366	     -1.09263472	     -1.42206950	      0.00000000	      3.94581803	     -6.93653071	      0.00000000	     -7.42153734	     -1.03429680	     -2.35534607	      8.50673451	     -4.18224365	     36.66717285	    101.04290568	     87.82196666	      6.60625943	    -12.85003866	     14.19648321	     96.20041352	     82.88437362
      1.11666670	      1.55699212	      1.91134480	     -3.72954616	      1.77620119	      0.88343605	     -0.17560051	     -5.07902449	     -6.25921670	      2.97604150	      0.00000000	      1.16870534	    -22.03946834	      0.00000000	     -5.92593715	     -1.29201439	     -1.22749389	      0.00000000	      3.70350802	     -7.24223912	      0.00000000	     -7.43571418	     -0.95300684	     -2.53087914	      8.57848343	     -4.13638702	     36.71306409	    100.91336409	     87.70262112	      6.22526683	    -12.84119698	     15.27386553	     96.92749881	     82.77366940
      1.13333330	      1.54484761	      1.93335581	     -3.74414147	      1.77655016	      0.88250263	     -0.17571968	     -5.09266045	     -6.24474308	      2.97535106	      0.00000000	      1.17031298	    -22.03824547	      0.00000000	     -5.93722857	     -1.29004571	     -1.22681498	      0.00000000	      3.70357370	     -7.24504311	      0.00000000	     -7.43045554	     -0.95822476	     -2.54166150	      8.58171595	     -4.13279421	     36.71356645	    100.91585749	     87.70177188	      6.22136843	    -12.82514825	     15.28814904	     96.93126721	     82.77297389
      1.15000000	      1.58770261	      1.94547248	     -3.76379472	      1.77718751	      0.88174899	     -0.17610340	     -5.17678558	     -6.26573494	      2.98450421	      0.00000000	      1.20977240	    -22.02135778	      0.00000000	     -6.03020043	     -1.25776079	     -1.25592234	      0.00000000	      3.74768602	     -7.33710603	      0.00000000	     -7.30282484	     -1.06080943	     -2.70753197	      8.69528389	     -4.03904736	     36.73349950	    100.96101614	     87.68513226	      6.00486924	    -12.41926300	     15.71943150	     97.04290736	     82.76766186
      1.16666670	      1.56894764	      1.95337122	     -3.77545496	      1.77759031	      0.88158737	     -0.17612154	     -5.18134390	     -6.25646784	      2.98175257	      0.00000000	      1.21253897	    -22.02224019	      0.00000000	     -6.03942052	     -1.25089976	     -1.25323081	      0.00000000	      3.74933777	     -7.33969085	      0.00000000	     -7.30458610	     -1.05796340	     -2.71443690	      8.69996538	     -4.03982112	     36.73386366	    100.96062197	     87.68419783	      6.00214270	    -12.41197204	     15.73613345	     97.04855092	     82.76722696
      1.18333330	      1.45694425	      1.92138124	     -3.77202072	      1.77807930	      0.88182522	     -0.17617408	     -5.09144451	     -6.22772988	      2.94723669	      0.00000000	      1.42051816	    -21.94739435	      0.00000000	     -5.95487713	     -1.27411006	     -1.03636271	      0.00000000	      3.87558638	     -7.63378993	      0.00000000	     -7.17781249	     -0.96981716	     -2.78696048	      8.88812370	     -4.15550481	     37.03188016	    100.93649937	     87.58535051	      5.97396508	    -12.73939450	     17.03804048	     97.62990413	     82.68177179
      1.20000000	      1.44993086	      1.91842335	     -3.77208881	      1.77824990	      0.88254629	     -0.17605060	     -5.09368618	     -6.22963026	      2.94688663	      0.00000000	      1.42059435	    -21.94752677	      0.00000000	     -5.95712856	     -1.27263457	     -1.03653701	      0.00000000	      3.87518690	     -7.63401917	      0.00000000	     -7.17675873	     -0.97020562	     -2.78717322	      8.88876783	     -4.15513039	     37.03196705	    100.93709242	     87.58524934	      5.97525816	    -12.73954053	     17.03802353	     97.63016885	     82.68159192
      1.21666670	      1.45509994	      1.92364300	     -3.80079561	      1.77865062	      0.88324861	     -0.17591741	     -5.14412646	     -6.24200420	      2.92169100	      0.00000000	      1.44399492	    -21.95427542	      0.00000000	     -6.01737606	     -1.25663982	     -1.03684823	      0.00000000	      3.84522777	     -7.63831412	      0.00000000	     -7.01625722	     -0.98949237	     -2.76486596	      8.90335392	     -4.13485613	     37.05982494	    100.99252955	     87.57924658	      6.10512089	    -12.83752506	     16.97729522	     97.64657931	     82.66508469
      1.23333330	      1.44607618	      1.92017977	     -3.80080982	      1.77865212	      0.88368846	     -0.17588445	     -5.14776368	     -6.24361266	      2.92153731	      0.00000000	      1.44448187	    -21.95444467	      0.00000000	     -6.01898936	     -1.25477670	     -1.03673017	      0.00000000	      3.84499949	     -7.63837320	      0.00000000	     -7.01609631	     -0.98987015	     -2.76390754	      8.90337330	     -4.13497907	     37.06019359	    100.99297830	     87.57917621	      6.10731064	    -12.84026554	     16.97533297	     97.64627918	     82.66481513
      1.25000000	      1.40835327	      1.93719694	     -3.78053691	      1.77867316	      0.88359315	     -0.17556984	     -5.13454154	     -6.24420384	      2.91162058	      0.00000000	      1.52246133	    -21.96634285	      0.00000000	     -5.98822338	     -1.25147240	     -0.99261757	      0.00000000	      3.81233930	     -7.62457530	      0.00000000	     -6.89873244	     -0.99504975	     -2.58181079	      8.83677945	     -4.18277146	     37.13156887	    101.05307472	     87.57370131	      6.54060619	    -13.38143578	     16.53433257	     97.59923298	     82.62324384
      1.26666670	      1.40743223	      1.93368527	     -3.78057410	      1.77864133	      0.88323909	     -0.17552758	     -5.13458764	     -6.24605080	      2.91168230	      0.00000000	      1.52273998	    -21.96625385	      0.00000000	     -5.98880143	     -1.25048785	     -0.99241064	      0.00000000	      3.81205497	     -7.62442804	      0.00000000	     -6.89929525	     -0.99565659	     -2.58176249	      8.83616075	     -4.18312748	     37.13193276	    101.05325663	     87.57367367	      6.54184824	    -13.38245764	     16.53285022	     97.59858817	     82.62303917
      1.28333330	      1.35884487	      1.95701960	     -3.79324309	      1.77855586	      0.88262306	     -0.17537551	     -5.05521622	     -6.27550194	      2.96875104	      0.00000000	      1.60651309	    -21.94852065	      0.00000000	     -5.92351593	     -1.24056862	     -0.94658991	      0.00000000	      3.79570278	     -7.62008457	      0.00000000	     -6.91323652	     -1.04961024	     -2.50840866	      8.67384930	     -4.27517416	     37.23418763	    101.10837874	     87.57053199	      6.91443101	    -13.66369716	     16.09370145	     97.48144814	     82.57430048
      1.30000000	      1.35998014	      1.95974038	     -3.77418779	      1.77868758	      0.88210156	     -0.17521848	     -5.05785972	     -6.29099474	      2.97632069	      0.00000000	      1.60909866	    -21.94414979	      0.00000000	     -5.92306249	     -1.24971809	     -0.94637577	      0.00000000	      3.79499248	     -7.62119671	      0.00000000	     -6.90791126	     -1.05244522	     -2.49792805	      8.67207122	     -4.27716056	     37.23948479	    101.11456478	     87.57027703	      6.91510618	    -13.65640966	     16.07868626	     97.47325739	     82.57146542
